<svg width="105" height="112" viewBox="0 0 105 112" fill="none" xmlns="http://www.w3.org/2000/svg">
<path d="M70.2176 101.891C80.0419 96.2112 88.3092 91.4745 88.6162 91.3429C89.0767 91.1675 89.3399 91.2333 90.1513 91.7815C91.5986 92.7464 92.9144 93.185 94.6468 93.3165C97.2564 93.5139 99.8221 92.6367 101.708 90.9043C103.835 88.9307 104.844 86.7158 104.866 83.9308C104.888 81.8256 104.449 80.2467 103.353 78.5581C102.388 77.067 101.335 76.124 99.6467 75.2468L98.4844 74.6328L98.4405 53.493L98.3748 32.3532L80.2831 21.9148L62.1914 11.4546L62.2572 10.2484C62.345 8.73532 61.7967 6.34503 61.0731 4.98541C59.7354 2.55126 56.9723 0.621487 54.0995 0.117113C51.2268 -0.365331 48.0251 0.665345 45.898 2.79249C44.034 4.65647 42.8279 7.72657 43.0472 10.0511L43.1568 11.0598L24.7143 21.6955L6.27178 32.3312L6.16213 53.5368L6.05249 74.7205L4.73673 75.51C3.02625 76.5407 2.5438 77.0012 1.51313 78.5581C0.416661 80.2686 5.0665e-06 81.694 5.0665e-06 83.865C5.0665e-06 89.3912 4.69287 93.7332 10.219 93.3165C11.9295 93.185 13.7935 92.549 14.9119 91.6718L15.6575 91.1017L16.447 91.5403C16.8856 91.7815 24.9336 96.4305 34.3413 101.869C43.7489 107.285 51.6435 111.847 51.9066 111.978C52.3013 112.198 54.6478 110.882 70.2176 101.891ZM35.5474 94.9612L19.2101 85.5097L19.0785 83.58C18.8592 80.5318 17.982 78.6239 15.9426 76.7599C15.2628 76.1679 14.276 75.4442 13.7277 75.181L12.7409 74.6986L12.7409 55.4666V36.2127L29.5168 26.5419L46.3146 16.8492L47.2357 17.4632C50.3496 19.5245 53.7267 19.7 57.0819 17.9895L58.7924 17.1123L75.349 26.6735L91.9056 36.2346V55.4666L91.9056 74.6767L90.6337 75.4661C87.5417 77.374 85.7874 80.4221 85.7654 83.9308L85.7435 85.3782L69.143 94.9612C60.0204 100.224 52.3891 104.522 52.2136 104.479C52.0382 104.435 44.5384 100.158 35.5474 94.9612Z" fill="white" fill-opacity="0.04"/>
<path d="M62.9546 82.2316C68.5684 78.9861 73.371 76.201 73.6341 76.0475C74.0946 75.7844 73.3052 75.3019 63.4151 69.5784C57.4942 66.1794 52.5601 63.3943 52.4066 63.3943C52.2531 63.3943 47.319 66.1794 41.4419 69.5784L30.7185 75.7625L31.3325 76.1353C34.4684 78.065 52.2531 88.1744 52.4724 88.1525C52.6259 88.1525 57.3407 85.4771 62.9546 82.2316Z" fill="white" fill-opacity="0.04"/>
<path d="M77.7954 56.8879V44.3882L71.6991 40.8795C68.3658 38.9497 63.4756 36.1428 60.8441 34.6077L56.0854 31.8665V44.4101V56.9536L66.7431 63.0938C72.5982 66.471 77.4884 69.2779 77.598 69.2998C77.7077 69.3437 77.7954 64.5193 77.7954 56.8879Z" fill="white" fill-opacity="0.04"/>
<path d="M38.0793 63.137L48.7808 56.953V44.3875V31.822L47.7282 32.436C47.158 32.765 42.3116 35.5939 36.9389 38.6859L27.1804 44.3217L27.1146 56.8214C27.0927 63.7072 27.1366 69.343 27.2243 69.3211C27.3339 69.3211 32.2022 66.5361 38.0793 63.137Z" fill="white" fill-opacity="0.04"/>
</svg>
