<svg width="58" height="56" viewBox="0 0 58 56" fill="none" xmlns="http://www.w3.org/2000/svg">
<ellipse cx="29" cy="28" rx="29" ry="28" fill="#FFF500" fill-opacity="0.09"/>
<path d="M29 31.5C28.5042 31.5 28.0883 31.332 27.7523 30.996C27.4163 30.66 27.2488 30.2447 27.25 29.75V17.5C27.25 17.0042 27.418 16.5883 27.754 16.2523C28.09 15.9163 28.5053 15.7488 29 15.75C29.4958 15.75 29.9118 15.918 30.2478 16.254C30.5838 16.59 30.7512 17.0053 30.75 17.5V29.75C30.75 30.2458 30.582 30.6618 30.246 30.9978C29.91 31.3338 29.4947 31.5012 29 31.5ZM29 40.25C28.5042 40.25 28.0883 40.082 27.7523 39.746C27.4163 39.41 27.2488 38.9947 27.25 38.5C27.25 38.0042 27.418 37.5883 27.754 37.2523C28.09 36.9163 28.5053 36.7488 29 36.75C29.4958 36.75 29.9118 36.918 30.2478 37.254C30.5838 37.59 30.7512 38.0053 30.75 38.5C30.75 38.9958 30.582 39.4118 30.246 39.7478C29.91 40.0838 29.4947 40.2512 29 40.25Z" fill="#FFC700"/>
</svg>
