<svg width="25" height="25" viewBox="0 0 25 25" fill="none" xmlns="http://www.w3.org/2000/svg">
<path d="M5.45748 14.1375L13.3226 22.2161C13.6437 22.5459 13.7978 22.9306 13.7849 23.3702C13.7721 23.8099 13.6046 24.1946 13.2825 24.5243C12.9615 24.8266 12.587 24.9848 12.1589 24.9991C11.7309 25.0134 11.3564 24.8551 11.0353 24.5243L0.441436 13.6429C0.280923 13.4781 0.166959 13.2994 0.0995431 13.1071C0.0321274 12.9148 -0.00104501 12.7087 2.50805e-05 12.4888C2.50805e-05 12.269 0.0337325 12.0629 0.101148 11.8706C0.168564 11.6782 0.281993 11.4996 0.441436 11.3348L11.0353 0.45339C11.3296 0.151129 11.6977 0 12.1397 0C12.5816 0 12.9626 0.151129 13.2825 0.45339C13.6035 0.783128 13.7641 1.17497 13.7641 1.62891C13.7641 2.08285 13.6035 2.47414 13.2825 2.80278L5.45748 10.8401H23.3949C23.8496 10.8401 24.2311 10.9984 24.5393 11.315C24.8475 11.6315 25.0011 12.0228 25 12.4888C25 12.956 24.8459 13.3478 24.5377 13.6644C24.2295 13.9809 23.8486 14.1386 23.3949 14.1375H5.45748Z" fill="white"/>
</svg>
