<svg width="25" height="25" viewBox="0 0 25 25" fill="none" xmlns="http://www.w3.org/2000/svg">
<path d="M11.1111 13.8889V0H13.8889V13.8889H11.1111ZM12.5 25C10.787 25 9.17222 24.6699 7.65556 24.0097C6.13889 23.3495 4.81389 22.4528 3.68056 21.3194C2.5463 20.1852 1.64908 18.8597 0.988891 17.3431C0.328705 15.8264 -0.000923981 14.212 1.94522e-06 12.5C1.94522e-06 10.6481 0.381946 8.90046 1.14584 7.25694C1.90972 5.61343 2.98611 4.18981 4.375 2.98611L6.38889 5C5.23148 5.87963 4.34028 6.97917 3.71528 8.29861C3.09028 9.61806 2.77778 11.0185 2.77778 12.5C2.77778 15.1852 3.72685 17.4769 5.625 19.375C7.52315 21.2731 9.81481 22.2222 12.5 22.2222C15.2083 22.2222 17.506 21.2731 19.3931 19.375C21.2801 17.4769 22.2231 15.1852 22.2222 12.5C22.2222 11.0185 21.9153 9.61806 21.3014 8.29861C20.6875 6.97917 19.7907 5.87963 18.6111 5L20.625 2.98611C22.0139 4.18981 23.0903 5.61343 23.8542 7.25694C24.6181 8.90046 25 10.6481 25 12.5C25 14.213 24.6699 15.8278 24.0097 17.3444C23.3495 18.8611 22.4588 20.1861 21.3375 21.3194C20.2144 22.4537 18.8949 23.3509 17.3792 24.0111C15.8634 24.6713 14.237 25.0009 12.5 25Z" fill="white" fill-opacity="0.42"/>
</svg>
