<?xml version="1.0" encoding="UTF-8" standalone="no" ?>
<!DOCTYPE svg PUBLIC "-//W3C//DTD SVG 1.1//EN" "">
<svg xmlns="http://www.w3.org/2000/svg" xmlns:xlink="http://www.w3.org/1999/xlink" version="1.1" width="1080" height="1080" viewBox="0 0 1080 1080" xml:space="preserve">
<desc>Created with Fabric.js 5.2.4</desc>
<defs>
</defs>
<g transform="matrix(1 0 0 1 540 540)" id="ed6e0d25-30c7-4f6c-ac72-f08cb445fb1c"  >
<rect style="stroke: none; stroke-width: 1; stroke-dasharray: none; stroke-linecap: butt; stroke-dashoffset: 0; stroke-linejoin: miter; stroke-miterlimit: 4; fill: rgb(255,255,255); fill-rule: nonzero; opacity: 1; visibility: hidden;" vector-effect="non-scaling-stroke"  x="-540" y="-540" rx="0" ry="0" width="1080" height="1080" />
</g>
<g transform="matrix(1 0 0 1 540 540)" id="69848459-18b3-4b2c-9599-60ebd7a9c10f"  >
</g>
<g transform="matrix(1 0 0 1 540 540)"  >
<g style="" vector-effect="non-scaling-stroke"   >
		<g transform="matrix(0.13 0 0 -0.13 0 0)"  >
<path style="stroke: none; stroke-width: 1; stroke-dasharray: none; stroke-linecap: butt; stroke-dashoffset: 0; stroke-linejoin: miter; stroke-miterlimit: 4; fill: rgb(255,255,255); fill-rule: nonzero; opacity: 1;" vector-effect="non-scaling-stroke"  transform=" translate(-2559.98, -2555.32)" d="M 1749 4648 C 1301 4389 924 4173 910 4167 C 889 4159 877 4162 840 4187 C 774 4231 714 4251 635 4257 C 516 4266 399 4226 313 4147 C 216 4057 170 3956 169 3829 C 168 3733 188 3661 238 3584 C 282 3516 330 3473 407 3433 L 460 3405 L 462 2441 L 465 1477 L 1290 1001 L 2115 524 L 2112 469 C 2108 400 2133 291 2166 229 C 2227 118 2353 30 2484 7 C 2615 -15 2761 32 2858 129 C 2943 214 2998 354 2988 460 L 2983 506 L 3824 991 L 4665 1476 L 4670 2443 L 4675 3409 L 4735 3445 C 4813 3492 4835 3513 4882 3584 C 4932 3662 4951 3727 4951 3826 C 4951 4078 4737 4276 4485 4257 C 4407 4251 4322 4222 4271 4182 L 4237 4156 L 4201 4176 C 4181 4187 3814 4399 3385 4647 C 2956 4894 2596 5102 2584 5108 C 2566 5118 2459 5058 1749 4648 z M 3330 4332 L 4075 3901 L 4081 3813 C 4091 3674 4131 3587 4224 3502 C 4255 3475 4300 3442 4325 3430 L 4370 3408 L 4370 2531 L 4370 1653 L 3605 1212 L 2839 770 L 2797 798 C 2655 892 2501 900 2348 822 L 2270 782 L 1515 1218 L 760 1654 L 760 2531 L 760 3407 L 818 3443 C 959 3530 1039 3669 1040 3829 L 1041 3895 L 1798 4332 C 2214 4572 2562 4768 2570 4766 C 2578 4764 2920 4569 3330 4332 z" stroke-linecap="round" />
</g>
		<g transform="matrix(0.13 0 0 -0.13 1.23 -117.22)"  >
<path style="stroke: none; stroke-width: 1; stroke-dasharray: none; stroke-linecap: butt; stroke-dashoffset: 0; stroke-linejoin: miter; stroke-miterlimit: 4; fill: rgb(255,255,255); fill-rule: nonzero; opacity: 1;" vector-effect="non-scaling-stroke"  transform=" translate(-2569.24, -3434.5)" d="M 2080 3729 C 1824 3581 1605 3454 1593 3447 C 1572 3435 1608 3413 2059 3152 C 2329 2997 2554 2870 2561 2870 C 2568 2870 2793 2997 3061 3152 L 3550 3434 L 3522 3451 C 3379 3539 2568 4000 2558 3999 C 2551 3999 2336 3877 2080 3729 z" stroke-linecap="round" />
</g>
		<g transform="matrix(0.13 0 0 -0.13 -86 32.11)"  >
<path style="stroke: none; stroke-width: 1; stroke-dasharray: none; stroke-linecap: butt; stroke-dashoffset: 0; stroke-linejoin: miter; stroke-miterlimit: 4; fill: rgb(255,255,255); fill-rule: nonzero; opacity: 1;" vector-effect="non-scaling-stroke"  transform=" translate(-1915, -2314.51)" d="M 1420 2602 L 1420 2032 L 1698 1872 C 1850 1784 2073 1656 2193 1586 L 2410 1461 L 2410 2033 L 2410 2605 L 1924 2885 C 1657 3039 1434 3167 1429 3168 C 1424 3170 1420 2950 1420 2602 z" stroke-linecap="round" />
</g>
		<g transform="matrix(0.13 0 0 -0.13 85.89 32.18)"  >
<path style="stroke: none; stroke-width: 1; stroke-dasharray: none; stroke-linecap: butt; stroke-dashoffset: 0; stroke-linejoin: miter; stroke-miterlimit: 4; fill: rgb(255,255,255); fill-rule: nonzero; opacity: 1;" vector-effect="non-scaling-stroke"  transform=" translate(-3204.13, -2314)" d="M 3198 2887 L 2710 2605 L 2710 2032 L 2710 1459 L 2758 1487 C 2784 1502 3005 1631 3250 1772 L 3695 2029 L 3698 2599 C 3699 2913 3697 3170 3693 3169 C 3688 3169 3466 3042 3198 2887 z" stroke-linecap="round" />
</g>
</g>
</g>
</svg>
